<mxfile host="Electron" agent="Mozilla/5.0 (Windows NT 10.0; Win64; x64) AppleWebKit/537.36 (KHTML, like Gecko) draw.io/26.2.2 Chrome/134.0.6998.178 Electron/35.1.2 Safari/537.36" version="26.2.2">
  <diagram id="R2lEEEUBdFMjLlhIrx00" name="Page-1">
    <mxGraphModel dx="2918" dy="1201" grid="1" gridSize="10" guides="1" tooltips="1" connect="1" arrows="1" fold="1" page="1" pageScale="1" pageWidth="850" pageHeight="1100" math="0" shadow="0" extFonts="Permanent Marker^https://fonts.googleapis.com/css?family=Permanent+Marker">
      <root>
        <mxCell id="0" />
        <mxCell id="1" parent="0" />
        <mxCell id="8m9oUnXXxjG7S8oi_13o-1" value="designer" style="whiteSpace=wrap;html=1;align=center;" vertex="1" parent="1">
          <mxGeometry x="-20" y="340" width="100" height="40" as="geometry" />
        </mxCell>
        <mxCell id="8m9oUnXXxjG7S8oi_13o-14" style="edgeStyle=none;shape=connector;rounded=0;orthogonalLoop=1;jettySize=auto;html=1;exitX=1;exitY=0.5;exitDx=0;exitDy=0;entryX=0;entryY=0.5;entryDx=0;entryDy=0;strokeColor=default;align=center;verticalAlign=middle;fontFamily=Helvetica;fontSize=11;fontColor=default;labelBackgroundColor=default;startFill=0;endArrow=none;" edge="1" parent="1" source="8m9oUnXXxjG7S8oi_13o-2" target="8m9oUnXXxjG7S8oi_13o-1">
          <mxGeometry relative="1" as="geometry" />
        </mxCell>
        <mxCell id="8m9oUnXXxjG7S8oi_13o-2" value="name" style="ellipse;whiteSpace=wrap;html=1;align=center;" vertex="1" parent="1">
          <mxGeometry x="-370" y="210" width="100" height="40" as="geometry" />
        </mxCell>
        <mxCell id="8m9oUnXXxjG7S8oi_13o-13" style="edgeStyle=none;shape=connector;rounded=0;orthogonalLoop=1;jettySize=auto;html=1;exitX=1;exitY=0.5;exitDx=0;exitDy=0;strokeColor=default;align=center;verticalAlign=middle;fontFamily=Helvetica;fontSize=11;fontColor=default;labelBackgroundColor=default;startFill=0;endArrow=none;entryX=0;entryY=0.5;entryDx=0;entryDy=0;" edge="1" parent="1" source="8m9oUnXXxjG7S8oi_13o-3" target="8m9oUnXXxjG7S8oi_13o-1">
          <mxGeometry relative="1" as="geometry">
            <mxPoint x="30" y="460" as="targetPoint" />
          </mxGeometry>
        </mxCell>
        <mxCell id="8m9oUnXXxjG7S8oi_13o-3" value="lastname" style="ellipse;whiteSpace=wrap;html=1;align=center;" vertex="1" parent="1">
          <mxGeometry x="-370" y="270" width="100" height="40" as="geometry" />
        </mxCell>
        <mxCell id="8m9oUnXXxjG7S8oi_13o-12" style="edgeStyle=none;shape=connector;rounded=0;orthogonalLoop=1;jettySize=auto;html=1;exitX=1;exitY=0.5;exitDx=0;exitDy=0;entryX=0;entryY=0.5;entryDx=0;entryDy=0;strokeColor=default;align=center;verticalAlign=middle;fontFamily=Helvetica;fontSize=11;fontColor=default;labelBackgroundColor=default;startFill=0;endArrow=none;" edge="1" parent="1" source="8m9oUnXXxjG7S8oi_13o-4" target="8m9oUnXXxjG7S8oi_13o-1">
          <mxGeometry relative="1" as="geometry" />
        </mxCell>
        <mxCell id="8m9oUnXXxjG7S8oi_13o-4" value="password" style="ellipse;whiteSpace=wrap;html=1;align=center;" vertex="1" parent="1">
          <mxGeometry x="-380" y="330" width="100" height="40" as="geometry" />
        </mxCell>
        <mxCell id="8m9oUnXXxjG7S8oi_13o-11" style="rounded=0;orthogonalLoop=1;jettySize=auto;html=1;exitX=1;exitY=0.5;exitDx=0;exitDy=0;entryX=0;entryY=0.5;entryDx=0;entryDy=0;endArrow=none;startFill=0;" edge="1" parent="1" source="8m9oUnXXxjG7S8oi_13o-5" target="8m9oUnXXxjG7S8oi_13o-1">
          <mxGeometry relative="1" as="geometry" />
        </mxCell>
        <mxCell id="8m9oUnXXxjG7S8oi_13o-5" value="email" style="ellipse;whiteSpace=wrap;html=1;align=center;" vertex="1" parent="1">
          <mxGeometry x="-380" y="390" width="100" height="40" as="geometry" />
        </mxCell>
        <mxCell id="8m9oUnXXxjG7S8oi_13o-15" style="edgeStyle=none;shape=connector;rounded=0;orthogonalLoop=1;jettySize=auto;html=1;exitX=0.5;exitY=1;exitDx=0;exitDy=0;entryX=0.5;entryY=0;entryDx=0;entryDy=0;strokeColor=default;align=center;verticalAlign=middle;fontFamily=Helvetica;fontSize=11;fontColor=default;labelBackgroundColor=default;startFill=0;endArrow=none;" edge="1" parent="1" source="8m9oUnXXxjG7S8oi_13o-6" target="8m9oUnXXxjG7S8oi_13o-1">
          <mxGeometry relative="1" as="geometry" />
        </mxCell>
        <mxCell id="8m9oUnXXxjG7S8oi_13o-6" value="id_designer" style="ellipse;whiteSpace=wrap;html=1;align=center;" vertex="1" parent="1">
          <mxGeometry x="-20" y="190" width="100" height="40" as="geometry" />
        </mxCell>
        <mxCell id="8m9oUnXXxjG7S8oi_13o-16" style="edgeStyle=none;shape=connector;rounded=0;orthogonalLoop=1;jettySize=auto;html=1;exitX=0;exitY=0.5;exitDx=0;exitDy=0;entryX=1;entryY=0.5;entryDx=0;entryDy=0;strokeColor=default;align=center;verticalAlign=middle;fontFamily=Helvetica;fontSize=11;fontColor=default;labelBackgroundColor=default;startFill=0;endArrow=none;" edge="1" parent="1" source="8m9oUnXXxjG7S8oi_13o-7" target="8m9oUnXXxjG7S8oi_13o-1">
          <mxGeometry relative="1" as="geometry" />
        </mxCell>
        <mxCell id="8m9oUnXXxjG7S8oi_13o-7" value="description" style="ellipse;whiteSpace=wrap;html=1;align=center;" vertex="1" parent="1">
          <mxGeometry x="380" y="210" width="100" height="40" as="geometry" />
        </mxCell>
        <mxCell id="8m9oUnXXxjG7S8oi_13o-17" style="edgeStyle=none;shape=connector;rounded=0;orthogonalLoop=1;jettySize=auto;html=1;exitX=0;exitY=0.5;exitDx=0;exitDy=0;entryX=1;entryY=0.5;entryDx=0;entryDy=0;strokeColor=default;align=center;verticalAlign=middle;fontFamily=Helvetica;fontSize=11;fontColor=default;labelBackgroundColor=default;startFill=0;endArrow=none;" edge="1" parent="1" source="8m9oUnXXxjG7S8oi_13o-8" target="8m9oUnXXxjG7S8oi_13o-1">
          <mxGeometry relative="1" as="geometry" />
        </mxCell>
        <mxCell id="8m9oUnXXxjG7S8oi_13o-8" value="city" style="ellipse;whiteSpace=wrap;html=1;align=center;" vertex="1" parent="1">
          <mxGeometry x="375" y="270" width="100" height="40" as="geometry" />
        </mxCell>
        <mxCell id="8m9oUnXXxjG7S8oi_13o-18" style="edgeStyle=none;shape=connector;rounded=0;orthogonalLoop=1;jettySize=auto;html=1;exitX=0;exitY=0.5;exitDx=0;exitDy=0;strokeColor=default;align=center;verticalAlign=middle;fontFamily=Helvetica;fontSize=11;fontColor=default;labelBackgroundColor=default;startFill=0;endArrow=none;entryX=1;entryY=0.5;entryDx=0;entryDy=0;" edge="1" parent="1" source="8m9oUnXXxjG7S8oi_13o-9" target="8m9oUnXXxjG7S8oi_13o-1">
          <mxGeometry relative="1" as="geometry">
            <mxPoint x="130" y="410" as="targetPoint" />
          </mxGeometry>
        </mxCell>
        <mxCell id="8m9oUnXXxjG7S8oi_13o-9" value="phone" style="ellipse;whiteSpace=wrap;html=1;align=center;" vertex="1" parent="1">
          <mxGeometry x="375" y="330" width="100" height="40" as="geometry" />
        </mxCell>
        <mxCell id="8m9oUnXXxjG7S8oi_13o-19" style="edgeStyle=none;shape=connector;rounded=0;orthogonalLoop=1;jettySize=auto;html=1;exitX=0;exitY=0.5;exitDx=0;exitDy=0;strokeColor=default;align=center;verticalAlign=middle;fontFamily=Helvetica;fontSize=11;fontColor=default;labelBackgroundColor=default;startFill=0;endArrow=none;entryX=1;entryY=0.5;entryDx=0;entryDy=0;" edge="1" parent="1" source="8m9oUnXXxjG7S8oi_13o-10" target="8m9oUnXXxjG7S8oi_13o-1">
          <mxGeometry relative="1" as="geometry">
            <mxPoint x="130" y="410" as="targetPoint" />
          </mxGeometry>
        </mxCell>
        <mxCell id="8m9oUnXXxjG7S8oi_13o-10" value="img_designer" style="ellipse;whiteSpace=wrap;html=1;align=center;" vertex="1" parent="1">
          <mxGeometry x="375" y="390" width="100" height="40" as="geometry" />
        </mxCell>
        <mxCell id="8m9oUnXXxjG7S8oi_13o-21" value="design" style="whiteSpace=wrap;html=1;align=center;" vertex="1" parent="1">
          <mxGeometry x="-20" y="780" width="100" height="40" as="geometry" />
        </mxCell>
        <mxCell id="8m9oUnXXxjG7S8oi_13o-23" style="edgeStyle=none;shape=connector;rounded=0;orthogonalLoop=1;jettySize=auto;html=1;exitX=0.5;exitY=0;exitDx=0;exitDy=0;entryX=0.5;entryY=1;entryDx=0;entryDy=0;strokeColor=default;align=center;verticalAlign=middle;fontFamily=Helvetica;fontSize=11;fontColor=default;labelBackgroundColor=default;startFill=0;endArrow=ERone;endFill=0;" edge="1" parent="1" source="8m9oUnXXxjG7S8oi_13o-22" target="8m9oUnXXxjG7S8oi_13o-1">
          <mxGeometry relative="1" as="geometry" />
        </mxCell>
        <mxCell id="8m9oUnXXxjG7S8oi_13o-24" style="edgeStyle=none;shape=connector;rounded=0;orthogonalLoop=1;jettySize=auto;html=1;exitX=0.5;exitY=1;exitDx=0;exitDy=0;entryX=0.5;entryY=0;entryDx=0;entryDy=0;strokeColor=default;align=center;verticalAlign=middle;fontFamily=Helvetica;fontSize=11;fontColor=default;labelBackgroundColor=default;startFill=0;endArrow=ERmany;endFill=0;" edge="1" parent="1" source="8m9oUnXXxjG7S8oi_13o-22" target="8m9oUnXXxjG7S8oi_13o-21">
          <mxGeometry relative="1" as="geometry" />
        </mxCell>
        <mxCell id="8m9oUnXXxjG7S8oi_13o-22" value="has" style="shape=rhombus;perimeter=rhombusPerimeter;whiteSpace=wrap;html=1;align=center;fontFamily=Helvetica;fontSize=11;fontColor=default;labelBackgroundColor=default;" vertex="1" parent="1">
          <mxGeometry x="-30" y="550" width="120" height="60" as="geometry" />
        </mxCell>
        <mxCell id="8m9oUnXXxjG7S8oi_13o-25" value="1 to N" style="text;html=1;align=center;verticalAlign=middle;resizable=0;points=[];autosize=1;strokeColor=none;fillColor=none;fontFamily=Helvetica;fontSize=11;fontColor=default;labelBackgroundColor=default;" vertex="1" parent="1">
          <mxGeometry x="120" y="565" width="50" height="30" as="geometry" />
        </mxCell>
        <mxCell id="8m9oUnXXxjG7S8oi_13o-37" style="edgeStyle=none;shape=connector;rounded=0;orthogonalLoop=1;jettySize=auto;html=1;exitX=1;exitY=0.5;exitDx=0;exitDy=0;entryX=0;entryY=0.5;entryDx=0;entryDy=0;strokeColor=default;align=center;verticalAlign=middle;fontFamily=Helvetica;fontSize=11;fontColor=default;labelBackgroundColor=default;startFill=0;endArrow=none;" edge="1" parent="1" source="8m9oUnXXxjG7S8oi_13o-26" target="8m9oUnXXxjG7S8oi_13o-21">
          <mxGeometry relative="1" as="geometry" />
        </mxCell>
        <mxCell id="8m9oUnXXxjG7S8oi_13o-26" value="name" style="ellipse;whiteSpace=wrap;html=1;align=center;" vertex="1" parent="1">
          <mxGeometry x="-370" y="840" width="100" height="40" as="geometry" />
        </mxCell>
        <mxCell id="8m9oUnXXxjG7S8oi_13o-39" style="edgeStyle=none;shape=connector;rounded=0;orthogonalLoop=1;jettySize=auto;html=1;exitX=0.5;exitY=0;exitDx=0;exitDy=0;entryX=0.5;entryY=1;entryDx=0;entryDy=0;strokeColor=default;align=center;verticalAlign=middle;fontFamily=Helvetica;fontSize=11;fontColor=default;labelBackgroundColor=default;startFill=0;endArrow=none;" edge="1" parent="1" source="8m9oUnXXxjG7S8oi_13o-27" target="8m9oUnXXxjG7S8oi_13o-21">
          <mxGeometry relative="1" as="geometry" />
        </mxCell>
        <mxCell id="8m9oUnXXxjG7S8oi_13o-27" value="id_design" style="ellipse;whiteSpace=wrap;html=1;align=center;" vertex="1" parent="1">
          <mxGeometry x="-20" y="940" width="100" height="40" as="geometry" />
        </mxCell>
        <mxCell id="8m9oUnXXxjG7S8oi_13o-36" style="edgeStyle=none;shape=connector;rounded=0;orthogonalLoop=1;jettySize=auto;html=1;exitX=1;exitY=0.5;exitDx=0;exitDy=0;strokeColor=default;align=center;verticalAlign=middle;fontFamily=Helvetica;fontSize=11;fontColor=default;labelBackgroundColor=default;startFill=0;endArrow=none;" edge="1" parent="1" source="8m9oUnXXxjG7S8oi_13o-28">
          <mxGeometry relative="1" as="geometry">
            <mxPoint x="-20" y="800" as="targetPoint" />
          </mxGeometry>
        </mxCell>
        <mxCell id="8m9oUnXXxjG7S8oi_13o-28" value="orientation" style="ellipse;whiteSpace=wrap;html=1;align=center;" vertex="1" parent="1">
          <mxGeometry x="-370" y="770" width="100" height="40" as="geometry" />
        </mxCell>
        <mxCell id="8m9oUnXXxjG7S8oi_13o-35" style="edgeStyle=none;shape=connector;rounded=0;orthogonalLoop=1;jettySize=auto;html=1;exitX=1;exitY=0.5;exitDx=0;exitDy=0;entryX=0;entryY=0.5;entryDx=0;entryDy=0;strokeColor=default;align=center;verticalAlign=middle;fontFamily=Helvetica;fontSize=11;fontColor=default;labelBackgroundColor=default;startFill=0;endArrow=none;" edge="1" parent="1" source="8m9oUnXXxjG7S8oi_13o-29" target="8m9oUnXXxjG7S8oi_13o-21">
          <mxGeometry relative="1" as="geometry" />
        </mxCell>
        <mxCell id="8m9oUnXXxjG7S8oi_13o-29" value="fabric" style="ellipse;whiteSpace=wrap;html=1;align=center;" vertex="1" parent="1">
          <mxGeometry x="-370" y="700" width="100" height="40" as="geometry" />
        </mxCell>
        <mxCell id="8m9oUnXXxjG7S8oi_13o-38" style="edgeStyle=none;shape=connector;rounded=0;orthogonalLoop=1;jettySize=auto;html=1;exitX=1;exitY=0.5;exitDx=0;exitDy=0;entryX=0;entryY=0.5;entryDx=0;entryDy=0;strokeColor=default;align=center;verticalAlign=middle;fontFamily=Helvetica;fontSize=11;fontColor=default;labelBackgroundColor=default;startFill=0;endArrow=none;" edge="1" parent="1" source="8m9oUnXXxjG7S8oi_13o-30" target="8m9oUnXXxjG7S8oi_13o-21">
          <mxGeometry relative="1" as="geometry" />
        </mxCell>
        <mxCell id="8m9oUnXXxjG7S8oi_13o-30" value="color" style="ellipse;whiteSpace=wrap;html=1;align=center;" vertex="1" parent="1">
          <mxGeometry x="-370" y="910" width="100" height="40" as="geometry" />
        </mxCell>
        <mxCell id="8m9oUnXXxjG7S8oi_13o-42" style="edgeStyle=none;shape=connector;rounded=0;orthogonalLoop=1;jettySize=auto;html=1;exitX=0;exitY=0.5;exitDx=0;exitDy=0;entryX=1;entryY=0.5;entryDx=0;entryDy=0;strokeColor=default;align=center;verticalAlign=middle;fontFamily=Helvetica;fontSize=11;fontColor=default;labelBackgroundColor=default;startFill=0;endArrow=none;" edge="1" parent="1" source="8m9oUnXXxjG7S8oi_13o-31" target="8m9oUnXXxjG7S8oi_13o-21">
          <mxGeometry relative="1" as="geometry" />
        </mxCell>
        <mxCell id="8m9oUnXXxjG7S8oi_13o-31" value="id_designer" style="ellipse;whiteSpace=wrap;html=1;align=center;" vertex="1" parent="1">
          <mxGeometry x="375" y="840" width="100" height="40" as="geometry" />
        </mxCell>
        <mxCell id="8m9oUnXXxjG7S8oi_13o-41" style="edgeStyle=none;shape=connector;rounded=0;orthogonalLoop=1;jettySize=auto;html=1;exitX=0;exitY=0.5;exitDx=0;exitDy=0;entryX=1;entryY=0.5;entryDx=0;entryDy=0;strokeColor=default;align=center;verticalAlign=middle;fontFamily=Helvetica;fontSize=11;fontColor=default;labelBackgroundColor=default;startFill=0;endArrow=none;" edge="1" parent="1" source="8m9oUnXXxjG7S8oi_13o-32" target="8m9oUnXXxjG7S8oi_13o-21">
          <mxGeometry relative="1" as="geometry" />
        </mxCell>
        <mxCell id="8m9oUnXXxjG7S8oi_13o-32" value="description" style="ellipse;whiteSpace=wrap;html=1;align=center;" vertex="1" parent="1">
          <mxGeometry x="375" y="770" width="100" height="40" as="geometry" />
        </mxCell>
        <mxCell id="8m9oUnXXxjG7S8oi_13o-40" style="edgeStyle=none;shape=connector;rounded=0;orthogonalLoop=1;jettySize=auto;html=1;exitX=0;exitY=0.5;exitDx=0;exitDy=0;entryX=1;entryY=0.5;entryDx=0;entryDy=0;strokeColor=default;align=center;verticalAlign=middle;fontFamily=Helvetica;fontSize=11;fontColor=default;labelBackgroundColor=default;startFill=0;endArrow=none;" edge="1" parent="1" source="8m9oUnXXxjG7S8oi_13o-33" target="8m9oUnXXxjG7S8oi_13o-21">
          <mxGeometry relative="1" as="geometry" />
        </mxCell>
        <mxCell id="8m9oUnXXxjG7S8oi_13o-33" value="type" style="ellipse;whiteSpace=wrap;html=1;align=center;" vertex="1" parent="1">
          <mxGeometry x="375" y="700" width="100" height="40" as="geometry" />
        </mxCell>
        <mxCell id="8m9oUnXXxjG7S8oi_13o-43" style="edgeStyle=none;shape=connector;rounded=0;orthogonalLoop=1;jettySize=auto;html=1;exitX=0;exitY=0.5;exitDx=0;exitDy=0;entryX=1;entryY=0.5;entryDx=0;entryDy=0;strokeColor=default;align=center;verticalAlign=middle;fontFamily=Helvetica;fontSize=11;fontColor=default;labelBackgroundColor=default;startFill=0;endArrow=none;" edge="1" parent="1" source="8m9oUnXXxjG7S8oi_13o-34" target="8m9oUnXXxjG7S8oi_13o-21">
          <mxGeometry relative="1" as="geometry" />
        </mxCell>
        <mxCell id="8m9oUnXXxjG7S8oi_13o-34" value="img_design" style="ellipse;whiteSpace=wrap;html=1;align=center;" vertex="1" parent="1">
          <mxGeometry x="375" y="910" width="100" height="40" as="geometry" />
        </mxCell>
      </root>
    </mxGraphModel>
  </diagram>
</mxfile>
